<svg xmlns="http://www.w3.org/2000/svg" viewBox="0 0 512 512" style="height: 512px; width: 512px;"><defs><filter id="shadow-1" height="300%" width="300%" x="-100%" y="-100%"><feFlood flood-color="rgba(74, 74, 74, 1)" result="flood"></feFlood><feComposite in="flood" in2="SourceGraphic" operator="atop" result="composite"></feComposite><feGaussianBlur in="composite" stdDeviation="4" result="blur"></feGaussianBlur><feOffset dx="0" dy="0" result="offset"></feOffset><feComposite in="SourceGraphic" in2="offset" operator="over"></feComposite></filter></defs><path d="M0 0h512v512H0z" fill="transparent" fill-opacity="0"></path><g class="" transform="translate(0,0)" style="touch-action: none;"><path d="M279 25v30h-46V25h46zm178 35.396c3.485 1.262 7.267 2.717 11.195 4.55 5.553 2.589 10.945 5.739 14.409 8.742C486.067 76.69 487 78.936 487 80c0 1.063-.933 3.31-4.396 6.313-3.464 3.002-8.856 6.152-14.409 8.742-3.928 1.832-7.71 3.287-11.195 4.549V60.396zm-402 0v39.208c-3.485-1.262-7.267-2.717-11.195-4.55-5.553-2.589-10.945-5.739-14.409-8.742C25.933 83.31 25 81.064 25 80c0-1.063.933-3.31 4.396-6.313 3.464-3.002 8.856-6.152 14.409-8.742 3.928-1.832 7.71-3.287 11.195-4.549zM439 73v14h-46V73h46zm-64 0v291.578L256 498.453 137 364.578V73h238zm-256 0v14H73V73h46zm210 23h-18v252.844l-55 68.75-55-68.75V96h-18v259.156l73 91.25 73-91.25V96z" fill="#4a4a4a" fill-opacity="1" stroke="#000000" stroke-opacity="1" stroke-width="2" transform="translate(0, 0) scale(1, 1) rotate(-360, 256, 256)" filter="url(#shadow-1)"></path></g></svg>